<svg width="218" height="196" viewBox="0 0 218 196" fill="none" xmlns="http://www.w3.org/2000/svg">
<g clip-path="url(#clip0_3_2)">
<path fill-rule="evenodd" clip-rule="evenodd" d="M109.125 115.184C92.3575 100.466 74.2155 90.231 49.75 97.6965C49.75 82.0574 49.753 26.5609 49.7738 9.26289V9.25993C49.7738 7.75498 50.9078 6.49592 52.407 6.33594C63.6497 5.22204 74.3223 6.35372 84.3597 9.99463C85.9005 10.5516 87.6045 9.75763 88.1656 8.22009C88.7238 6.68552 87.9281 4.98504 86.3903 4.42513C75.5247 0.485005 63.9762 -0.76517 51.8044 0.440568C51.8044 0.440568 51.7955 0.440568 51.7895 0.44353C47.2681 0.91753 43.8363 4.72138 43.8363 9.25993C43.8303 13.4252 43.8273 19.8094 43.8244 27.3164H34.9062C32.5431 27.3164 30.278 28.2525 28.6095 29.9204C26.9381 31.5853 26 33.8457 26 36.2039V125.079C26 127.437 26.9381 129.697 28.6066 131.362C30.278 133.03 32.5431 133.966 34.9062 133.966H61.4677V154.704C61.4677 155.901 62.1891 156.982 63.2994 157.441C64.4097 157.9 65.6862 157.646 66.5353 156.798L76.3114 147.043L86.0875 156.798C86.9366 157.646 88.2131 157.9 89.3205 157.441C90.4308 156.982 91.1552 155.901 91.1552 154.704V133.966H183.344C185.707 133.966 187.972 133.03 189.64 131.362C191.312 129.697 192.25 127.437 192.25 125.079C192.25 107.221 192.25 54.0618 192.25 36.2039C192.25 31.295 188.263 27.3164 183.344 27.3164H174.426C174.423 19.8094 174.42 13.4222 174.414 9.25401C174.414 4.72138 170.982 0.91753 166.46 0.44353C166.455 0.440568 166.446 0.440568 166.446 0.440568C154.274 -0.76517 142.725 0.485005 131.86 4.42513C130.322 4.98504 129.526 6.68552 130.084 8.22009C130.645 9.75763 132.35 10.5516 133.89 9.99463C143.928 6.35372 154.6 5.22204 165.843 6.33594C167.342 6.49592 168.476 7.75498 168.476 9.25993V9.26289C168.497 26.5609 168.5 82.0574 168.5 97.6965C144.035 90.231 125.893 100.466 109.125 115.184ZM67.4052 101.207V147.552L74.2125 140.759C75.3703 139.601 77.2495 139.601 78.4103 140.759L85.2177 147.552V105.823V105.769C79.6661 103.139 73.782 101.471 67.4052 101.207Z" fill="#412B20"/>
<circle cx="186.125" cy="36.9164" r="2" fill="#A76F52"/>
<circle cx="181.125" cy="36.9164" r="2" fill="#C98662"/>
<g filter="url(#filter0_d_3_2)">
<circle cx="176.125" cy="36.9164" r="2" fill="#EB9D73"/>
</g>
<path d="M31.125 36.9164H42.125" stroke="#C98662" stroke-width="4" stroke-linecap="round"/>
<path d="M140.101 30.822H114.649V7.84089C114.649 5.21448 112.304 2.91637 109.625 2.91637C106.946 2.91637 104.601 5.21448 104.601 7.84089V30.822H79.1486C76.4693 30.822 74.125 33.1201 74.125 35.7466C74.125 38.373 76.4693 40.6711 79.1486 40.6711H104.601V84.9918C104.601 87.6183 106.946 89.9164 109.625 89.9164C112.304 89.9164 114.649 87.6183 114.649 84.9918V40.6711H140.101C142.781 40.6711 145.125 38.373 145.125 35.7466C145.125 33.1201 142.781 30.822 140.101 30.822Z" fill="#C98662"/>
<path d="M6.88 188V172.82H1.72V168.5H17.2V172.82H12.04V188H6.88ZM19.6736 188V167.12H24.8336V171.98L24.5936 174.56C25.1136 174.1 25.7336 173.67 26.4536 173.27C27.1936 172.85 28.0736 172.64 29.0936 172.64C30.7536 172.64 31.9436 173.2 32.6636 174.32C33.4036 175.42 33.7736 176.9 33.7736 178.76V188H28.6136V179.42C28.6136 178.46 28.4936 177.82 28.2536 177.5C28.0136 177.18 27.6336 177.02 27.1136 177.02C26.6336 177.02 26.2336 177.12 25.9136 177.32C25.5936 177.52 25.2336 177.8 24.8336 178.16V188H19.6736ZM44.0945 188.36C42.6345 188.36 41.3145 188.05 40.1345 187.43C38.9745 186.81 38.0545 185.92 37.3745 184.76C36.6945 183.58 36.3545 182.16 36.3545 180.5C36.3545 178.88 36.6945 177.49 37.3745 176.33C38.0745 175.15 38.9745 174.24 40.0745 173.6C41.1745 172.96 42.3345 172.64 43.5545 172.64C45.0345 172.64 46.2545 172.97 47.2145 173.63C48.1945 174.27 48.9145 175.14 49.3745 176.24C49.8545 177.34 50.0945 178.56 50.0945 179.9C50.0945 180.34 50.0645 180.77 50.0045 181.19C49.9645 181.59 49.9245 181.88 49.8845 182.06H41.3345C41.5745 182.96 42.0045 183.59 42.6245 183.95C43.2445 184.29 43.9745 184.46 44.8145 184.46C45.7745 184.46 46.7945 184.16 47.8745 183.56L49.5545 186.62C48.7545 187.18 47.8545 187.61 46.8545 187.91C45.8545 188.21 44.9345 188.36 44.0945 188.36ZM41.2745 178.7H45.7145C45.7145 178.12 45.5645 177.62 45.2645 177.2C44.9845 176.76 44.4545 176.54 43.6745 176.54C43.1145 176.54 42.6145 176.71 42.1745 177.05C41.7345 177.39 41.4345 177.94 41.2745 178.7ZM134.498 188V168.5H141.638C143.058 168.5 144.368 168.7 145.568 169.1C146.768 169.5 147.728 170.17 148.448 171.11C149.188 172.05 149.558 173.34 149.558 174.98C149.558 176.56 149.188 177.86 148.448 178.88C147.728 179.88 146.768 180.62 145.568 181.1C144.388 181.58 143.118 181.82 141.758 181.82H139.658V188H134.498ZM139.658 177.74H141.518C142.538 177.74 143.288 177.5 143.768 177.02C144.268 176.52 144.518 175.84 144.518 174.98C144.518 174.1 144.248 173.48 143.708 173.12C143.168 172.76 142.398 172.58 141.398 172.58H139.658V177.74ZM156.95 188.36C155.79 188.36 154.87 188.13 154.19 187.67C153.53 187.19 153.05 186.53 152.75 185.69C152.47 184.83 152.33 183.84 152.33 182.72V167.12H157.49V182.9C157.49 183.4 157.58 183.75 157.76 183.95C157.96 184.13 158.15 184.22 158.33 184.22C158.43 184.22 158.51 184.22 158.57 184.22C158.65 184.2 158.75 184.18 158.87 184.16L159.47 187.94C159.21 188.06 158.87 188.16 158.45 188.24C158.03 188.32 157.53 188.36 156.95 188.36ZM165.825 188.36C164.185 188.36 162.995 187.81 162.255 186.71C161.515 185.59 161.145 184.1 161.145 182.24V173H166.305V181.58C166.305 182.54 166.425 183.18 166.665 183.5C166.925 183.82 167.305 183.98 167.805 183.98C168.285 183.98 168.685 183.88 169.005 183.68C169.325 183.48 169.645 183.14 169.965 182.66V173H175.125V188H170.925L170.565 186.02H170.445C169.845 186.74 169.175 187.31 168.435 187.73C167.715 188.15 166.845 188.36 165.825 188.36ZM184.069 194.18C182.929 194.18 181.879 194.05 180.919 193.79C179.959 193.55 179.189 193.16 178.609 192.62C178.049 192.08 177.769 191.36 177.769 190.46C177.769 189.28 178.469 188.32 179.869 187.58V187.46C179.489 187.18 179.159 186.84 178.879 186.44C178.619 186.02 178.489 185.5 178.489 184.88C178.489 184.36 178.639 183.85 178.939 183.35C179.259 182.85 179.669 182.42 180.169 182.06V181.94C179.629 181.58 179.149 181.07 178.729 180.41C178.329 179.73 178.129 178.96 178.129 178.1C178.129 176.86 178.429 175.84 179.029 175.04C179.649 174.22 180.449 173.62 181.429 173.24C182.409 172.84 183.449 172.64 184.549 172.64C185.429 172.64 186.229 172.76 186.949 173H192.529V176.72H190.369C190.429 176.9 190.479 177.13 190.519 177.41C190.579 177.69 190.609 177.98 190.609 178.28C190.609 179.46 190.339 180.42 189.799 181.16C189.259 181.88 188.529 182.41 187.609 182.75C186.689 183.09 185.669 183.26 184.549 183.26C184.049 183.26 183.489 183.19 182.869 183.05C182.629 183.27 182.509 183.56 182.509 183.92C182.509 184.24 182.669 184.47 182.989 184.61C183.329 184.75 183.869 184.82 184.609 184.82H186.859C188.739 184.82 190.189 185.13 191.209 185.75C192.249 186.35 192.769 187.34 192.769 188.72C192.769 189.8 192.409 190.75 191.689 191.57C190.989 192.39 189.989 193.03 188.689 193.49C187.389 193.95 185.849 194.18 184.069 194.18ZM184.549 180.2C185.029 180.2 185.419 180.03 185.719 179.69C186.019 179.35 186.169 178.82 186.169 178.1C186.169 177.4 186.019 176.89 185.719 176.57C185.419 176.23 185.029 176.06 184.549 176.06C184.069 176.06 183.679 176.23 183.379 176.57C183.079 176.89 182.929 177.4 182.929 178.1C182.929 178.82 183.079 179.35 183.379 179.69C183.679 180.03 184.069 180.2 184.549 180.2ZM184.909 191C185.749 191 186.449 190.87 187.009 190.61C187.569 190.37 187.849 190.04 187.849 189.62C187.849 189.22 187.669 188.97 187.309 188.87C186.969 188.77 186.479 188.72 185.839 188.72H184.669C184.069 188.72 183.609 188.7 183.289 188.66C182.989 188.64 182.729 188.6 182.509 188.54C182.149 188.9 181.969 189.26 181.969 189.62C181.969 190.1 182.239 190.45 182.779 190.67C183.339 190.89 184.049 191 184.909 191ZM194.986 188V173H200.146V188H194.986ZM197.566 171.14C196.726 171.14 196.046 170.91 195.526 170.45C195.006 169.97 194.746 169.34 194.746 168.56C194.746 167.78 195.006 167.16 195.526 166.7C196.046 166.22 196.726 165.98 197.566 165.98C198.406 165.98 199.086 166.22 199.606 166.7C200.126 167.16 200.386 167.78 200.386 168.56C200.386 169.34 200.126 169.97 199.606 170.45C199.086 170.91 198.406 171.14 197.566 171.14ZM203.629 188V173H207.829L208.189 174.8H208.309C208.909 174.22 209.589 173.72 210.349 173.3C211.129 172.86 212.029 172.64 213.049 172.64C214.709 172.64 215.899 173.2 216.619 174.32C217.359 175.42 217.729 176.9 217.729 178.76V188H212.569V179.42C212.569 178.46 212.449 177.82 212.209 177.5C211.969 177.18 211.589 177.02 211.069 177.02C210.589 177.02 210.189 177.12 209.869 177.32C209.549 177.52 209.189 177.8 208.789 178.16V188H203.629Z" fill="#6B4834"/>
<path d="M59.3514 188V168.5H66.3714C67.7314 168.5 68.9714 168.64 70.0914 168.92C71.2114 169.2 72.1014 169.69 72.7614 170.39C73.4214 171.09 73.7514 172.08 73.7514 173.36C73.7514 174.2 73.5314 175.04 73.0914 175.88C72.6514 176.7 72.0514 177.26 71.2914 177.56V177.68C72.2314 177.94 73.0214 178.44 73.6614 179.18C74.3214 179.92 74.6514 180.94 74.6514 182.24C74.6514 183.58 74.3014 184.68 73.6014 185.54C72.9014 186.38 71.9714 187 70.8114 187.4C69.6514 187.8 68.3714 188 66.9714 188H59.3514ZM64.5114 176.12H66.2514C67.0914 176.12 67.7114 175.94 68.1114 175.58C68.5114 175.22 68.7114 174.74 68.7114 174.14C68.7114 173.54 68.5114 173.11 68.1114 172.85C67.7114 172.59 67.0914 172.46 66.2514 172.46H64.5114V176.12ZM64.5114 184.04H66.6114C68.6114 184.04 69.6114 183.32 69.6114 181.88C69.6114 181.16 69.3614 180.65 68.8614 180.35C68.3814 180.05 67.6314 179.9 66.6114 179.9H64.5114V184.04ZM77.3005 188V173H82.4605V188H77.3005ZM79.8805 171.14C79.0405 171.14 78.3605 170.91 77.8405 170.45C77.3205 169.97 77.0605 169.34 77.0605 168.56C77.0605 167.78 77.3205 167.16 77.8405 166.7C78.3605 166.22 79.0405 165.98 79.8805 165.98C80.7205 165.98 81.4005 166.22 81.9205 166.7C82.4405 167.16 82.7005 167.78 82.7005 168.56C82.7005 169.34 82.4405 169.97 81.9205 170.45C81.4005 170.91 80.7205 171.14 79.8805 171.14ZM94.2831 188.36C92.9031 188.36 91.6431 187.7 90.5031 186.38H90.3831L89.9631 188H85.9431V167.12H91.1031V171.98L90.9831 174.14C92.0831 173.14 93.3131 172.64 94.6731 172.64C95.8531 172.64 96.8831 172.96 97.7631 173.6C98.6431 174.22 99.3231 175.1 99.8031 176.24C100.283 177.36 100.523 178.69 100.523 180.23C100.523 181.95 100.223 183.42 99.6231 184.64C99.0231 185.86 98.2431 186.79 97.2831 187.43C96.3431 188.05 95.3431 188.36 94.2831 188.36ZM93.0231 184.16C93.6231 184.16 94.1431 183.88 94.5831 183.32C95.0231 182.76 95.2431 181.76 95.2431 180.32C95.2431 179.08 95.0631 178.19 94.7031 177.65C94.3631 177.11 93.8431 176.84 93.1431 176.84C92.7631 176.84 92.4131 176.92 92.0931 177.08C91.7731 177.24 91.4431 177.52 91.1031 177.92V183.44C91.4031 183.7 91.7131 183.89 92.0331 184.01C92.3731 184.11 92.7031 184.16 93.0231 184.16ZM107.965 188.36C106.805 188.36 105.885 188.13 105.205 187.67C104.545 187.19 104.065 186.53 103.765 185.69C103.485 184.83 103.345 183.84 103.345 182.72V167.12H108.505V182.9C108.505 183.4 108.595 183.75 108.775 183.95C108.975 184.13 109.165 184.22 109.345 184.22C109.445 184.22 109.525 184.22 109.585 184.22C109.665 184.2 109.765 184.18 109.885 184.16L110.485 187.94C110.225 188.06 109.885 188.16 109.465 188.24C109.045 188.32 108.545 188.36 107.965 188.36ZM119.241 188.36C117.781 188.36 116.461 188.05 115.281 187.43C114.121 186.81 113.201 185.92 112.521 184.76C111.841 183.58 111.501 182.16 111.501 180.5C111.501 178.88 111.841 177.49 112.521 176.33C113.221 175.15 114.121 174.24 115.221 173.6C116.321 172.96 117.481 172.64 118.701 172.64C120.181 172.64 121.401 172.97 122.361 173.63C123.341 174.27 124.061 175.14 124.521 176.24C125.001 177.34 125.241 178.56 125.241 179.9C125.241 180.34 125.211 180.77 125.151 181.19C125.111 181.59 125.071 181.88 125.031 182.06H116.481C116.721 182.96 117.151 183.59 117.771 183.95C118.391 184.29 119.121 184.46 119.961 184.46C120.921 184.46 121.941 184.16 123.021 183.56L124.701 186.62C123.901 187.18 123.001 187.61 122.001 187.91C121.001 188.21 120.081 188.36 119.241 188.36ZM116.421 178.7H120.861C120.861 178.12 120.711 177.62 120.411 177.2C120.131 176.76 119.601 176.54 118.821 176.54C118.261 176.54 117.761 176.71 117.321 177.05C116.881 177.39 116.581 177.94 116.421 178.7Z" fill="#C98662"/>
</g>
<defs>
<filter id="filter0_d_3_2" x="170.125" y="34.9164" width="12" height="12" filterUnits="userSpaceOnUse" color-interpolation-filters="sRGB">
<feFlood flood-opacity="0" result="BackgroundImageFix"/>
<feColorMatrix in="SourceAlpha" type="matrix" values="0 0 0 0 0 0 0 0 0 0 0 0 0 0 0 0 0 0 127 0" result="hardAlpha"/>
<feOffset dy="4"/>
<feGaussianBlur stdDeviation="2"/>
<feComposite in2="hardAlpha" operator="out"/>
<feColorMatrix type="matrix" values="0 0 0 0 0 0 0 0 0 0 0 0 0 0 0 0 0 0 0.25 0"/>
<feBlend mode="normal" in2="BackgroundImageFix" result="effect1_dropShadow_3_2"/>
<feBlend mode="normal" in="SourceGraphic" in2="effect1_dropShadow_3_2" result="shape"/>
</filter>
<clipPath id="clip0_3_2">
<rect width="218" height="196" fill="white"/>
</clipPath>
</defs>
</svg>
