<?xml version="1.0" encoding="utf-8"?>
<!-- Generator: Adobe Illustrator 28.3.0, SVG Export Plug-In . SVG Version: 6.00 Build 0)  -->
<svg version="1.1" id="Layer_1" xmlns="http://www.w3.org/2000/svg" xmlns:xlink="http://www.w3.org/1999/xlink" x="0px"
     y="0px"
     viewBox="0 0 108 80.33" style="enable-background:new 0 0 108 80.33;" xml:space="preserve">
<style type="text/css">
	.st0{fill:#7e5541;}
</style>
    <g>
	<g>
		<path class="st0" d="M77.54,9.58c-5.76-0.61-14.02,0.44-21.32,5.43c3.27-3.2,7.05-5.58,11.35-7.15c4.3-1.57,8.74-2.19,13.36-1.91
			c0,0.38,0.01,0.75,0.01,1.13c0,0.38,0,0.75,0,1.13c0,0.39,0,0.77,0,1.16c0,0.38,0,0.75,0,1.13c0,0.37,0,0.75,0,1.17
			c0.58-0.04,1.12-0.1,1.67-0.13c0.55-0.03,1.11-0.05,1.66-0.06c0.55-0.01,1.11-0.01,1.66,0.01c0.55,0.02,1.11,0.06,1.66,0.11
			c0.55,0.05,1.1,0.11,1.65,0.18c0.55,0.07,1.09,0.16,1.67,0.25c-1.72,14.01-3.43,27.99-5.14,42c-4.46-1.06-8.93-1.37-13.46-0.91
			c-4.52,0.46-8.83,1.66-12.96,3.55c3.41-2.4,7.13-4.11,11.15-5.17c4.02-1.06,8.11-1.38,12.29-1.03
			c1.44-11.75,2.87-23.48,4.32-35.25c-2.03-0.45-4.06-0.69-6.14-0.74c-0.01,0.1-0.03,0.17-0.03,0.25c0,0.12,0,0.24,0,0.36
			c0,10.97,0,21.94,0,32.91c0,0.14,0,0.27,0,0.43c-5.16-0.3-10.1,0.49-14.83,2.49c-4.74,2-8.77,4.98-12.08,8.91
			c-7.15-8.13-16.16-11.85-26.97-11.43c0-11.28,0-22.57,0-33.91c-2.09,0.04-4.12,0.29-6.16,0.73c1.44,11.75,2.87,23.48,4.31,35.24
			c8.54-0.66,16.36,1.36,23.43,6.19c-8.49-3.86-17.29-4.72-26.41-2.63c-1.71-13.99-3.42-27.96-5.14-41.97
			c3.31-0.63,6.6-0.72,9.95-0.36c0.01-0.97,0-1.92,0-2.86c0-0.94,0-1.88,0-2.85c4.05-0.26,7.99,0.19,11.84,1.39
			c4.88,1.52,9.16,4.05,12.82,7.63c-3.12-2.07-6.49-3.59-10.13-4.52c-3.64-0.93-7.34-1.22-11.08-0.89
			c-0.02,0.02-0.03,0.03-0.03,0.03c-0.01,0.01-0.02,0.01-0.02,0.02c-0.01,0.05-0.02,0.1-0.02,0.15c0,11.72,0,23.44,0,35.16
			c0,0.04,0.01,0.08,0.02,0.15c0.18,0.02,0.37,0.03,0.55,0.05c0.98,0.09,1.97,0.14,2.95,0.26c2.74,0.35,5.41,1.03,8,2.01
			c3.9,1.48,7.44,3.58,10.59,6.32c0.43,0.37,0.84,0.78,1.26,1.17c0.05,0.05,0.11,0.08,0.19,0.15c3.15-3.1,6.78-5.46,10.84-7.17
			c4.05-1.71,8.28-2.61,12.68-2.77C77.54,33.23,77.54,21.42,77.54,9.58z"/>
        <path class="st0" d="M47.26,21.63c0.11-0.01,0.18-0.01,0.25-0.01c2.42,0,4.85,0,7.27,0.01c0.7,0,1.41,0.04,2.09,0.24
			c1.47,0.44,2.45,1.39,2.82,2.89c0.4,1.62-0.35,3.3-1.8,4.13c-0.08,0.05-0.17,0.1-0.31,0.18c0.16,0.06,0.28,0.11,0.41,0.16
			c1.22,0.47,2.07,1.29,2.44,2.56c0.25,0.87,0.2,1.75-0.09,2.6c-0.63,1.8-1.88,2.85-3.79,3.01c-1.1,0.09-2.21,0.11-3.32,0.12
			c-1.88,0.02-3.76,0-5.64,0c-0.1,0-0.19,0-0.31,0C47.26,32.2,47.26,26.93,47.26,21.63z M50.47,30.56
			c-0.07,0.38-0.06,4.05,0.01,4.28c0.07,0,0.15,0.01,0.23,0.01c0.93,0,1.86,0.01,2.79,0c0.61-0.01,1.23-0.03,1.84-0.06
			c0.32-0.01,0.63-0.09,0.91-0.24c0.75-0.4,1.04-1.04,1.02-1.86c-0.02-1-0.61-1.73-1.58-1.95c-0.64-0.14-1.29-0.16-1.95-0.17
			c-1-0.01-2-0.01-3-0.01C50.66,30.56,50.57,30.56,50.47,30.56z M50.48,24.24c-0.08,0.31-0.07,3.45,0.01,3.69
			c0.06,0.01,0.13,0.02,0.2,0.02c1.05,0,2.1,0,3.14-0.02c0.43-0.01,0.87-0.02,1.3-0.09c0.8-0.12,1.61-0.68,1.55-1.91
			c-0.04-0.78-0.46-1.35-1.22-1.56c-0.19-0.05-0.39-0.09-0.58-0.1c-1.38-0.02-2.77-0.04-4.15-0.05
			C50.64,24.22,50.55,24.24,50.48,24.24z"/>
        <path class="st0" d="M63.33,21.63c0.11-0.01,0.21-0.02,0.3-0.02c2.09,0,4.17-0.01,6.26,0.01c0.68,0.01,1.37,0.04,2.04,0.16
			c1.66,0.29,2.74,1.3,3.28,2.88c0.39,1.15,0.38,2.34,0.05,3.51c-0.46,1.68-1.98,2.95-3.71,3.17c-0.91,0.12-1.83,0.15-2.75,0.16
			c-0.65,0.01-1.31,0-1.96,0c-0.11,0-0.21,0-0.35,0c0,2.01,0,3.99,0,6c-1.07,0-2.11,0-3.17,0C63.33,32.2,63.33,26.93,63.33,21.63z
			 M66.51,28.81c0.12,0.01,0.2,0.02,0.29,0.02c0.7,0,1.4,0,2.11-0.02c0.51-0.02,1.03-0.05,1.53-0.13c1.02-0.17,1.72-0.98,1.77-2.02
			c0.05-1.2-0.66-1.93-1.54-2.2c-0.22-0.07-0.44-0.11-0.67-0.12c-1.09-0.03-2.17-0.05-3.26-0.06c-0.07,0-0.15,0.02-0.23,0.03
			C66.51,25.81,66.51,27.29,66.51,28.81z"/>
        <path class="st0" d="M40.43,24.27c0,4.42,0,8.81,0,13.22c-1.07,0-2.1,0-3.17,0c-0.01-0.11-0.02-0.22-0.02-0.33
			c0-1.08,0-2.16,0-3.23c0-3.07,0-6.13,0-9.2c0-0.14,0-0.27,0-0.44c-1.59,0-3.13,0-4.72,0c-0.03-0.89-0.01-1.76-0.02-2.62
			c0.23-0.06,12.19-0.08,12.6-0.02c0,0.86,0,1.72,0,2.63C43.55,24.27,42.01,24.27,40.43,24.27z"/>
	</g>
</g>
</svg>
