<svg width="190" height="171" viewBox="0 0 190 171" fill="none" xmlns="http://www.w3.org/2000/svg">
<path fill-rule="evenodd" clip-rule="evenodd" d="M94.125 128.184C77.3575 113.466 59.2155 103.231 34.75 110.696C34.75 95.0574 34.753 39.5609 34.7738 22.2629V22.2599C34.7738 20.755 35.9078 19.4959 37.407 19.3359C48.6497 18.222 59.3223 19.3537 69.3597 22.9946C70.9005 23.5516 72.6045 22.7576 73.1656 21.2201C73.7238 19.6855 72.9281 17.985 71.3903 17.4251C60.5247 13.485 48.9762 12.2348 36.8044 13.4406C36.8044 13.4406 36.7955 13.4406 36.7895 13.4435C32.2681 13.9175 28.8363 17.7214 28.8363 22.2599C28.8303 26.4252 28.8273 32.8094 28.8244 40.3164H19.9062C17.5431 40.3164 15.278 41.2525 13.6095 42.9204C11.9381 44.5853 11 46.8457 11 49.2039V138.079C11 140.437 11.9381 142.697 13.6066 144.362C15.278 146.03 17.5431 146.966 19.9062 146.966H46.4677V167.704C46.4677 168.901 47.1891 169.982 48.2994 170.441C49.4097 170.9 50.6862 170.646 51.5353 169.798L61.3114 160.043L71.0875 169.798C71.9366 170.646 73.2131 170.9 74.3205 170.441C75.4308 169.982 76.1552 168.901 76.1552 167.704V146.966H168.344C170.707 146.966 172.972 146.03 174.64 144.362C176.312 142.697 177.25 140.437 177.25 138.079C177.25 120.221 177.25 67.0618 177.25 49.2039C177.25 44.295 173.263 40.3164 168.344 40.3164H159.426C159.423 32.8094 159.42 26.4222 159.414 22.254C159.414 17.7214 155.982 13.9175 151.46 13.4435C151.455 13.4406 151.446 13.4406 151.446 13.4406C139.274 12.2348 127.725 13.485 116.86 17.4251C115.322 17.985 114.526 19.6855 115.084 21.2201C115.645 22.7576 117.35 23.5516 118.89 22.9946C128.928 19.3537 139.6 18.222 150.843 19.3359C152.342 19.4959 153.476 20.755 153.476 22.2599V22.2629C153.497 39.5609 153.5 95.0574 153.5 110.696C129.035 103.231 110.893 113.466 94.125 128.184ZM52.4052 114.207V160.552L59.2125 153.759C60.3703 152.601 62.2495 152.601 63.4103 153.759L70.2177 160.552V118.823V118.769C64.6661 116.139 58.782 114.471 52.4052 114.207Z" fill="#6B4834"/>
<circle cx="171.125" cy="49.9164" r="2" fill="#A76F52"/>
<circle cx="166.125" cy="49.9164" r="2" fill="#C98662"/>
<g filter="url(#filter0_d_3_121)">
<circle cx="161.125" cy="49.9164" r="2" fill="#EB9D73"/>
</g>
<path d="M16.125 49.9164H27.125" stroke="#C98662" stroke-width="4" stroke-linecap="round"/>
<path d="M58.584 84V56.676H49.296V48.9H77.16V56.676H67.872V84H58.584ZM82.3685 84V48.9H95.0045C97.4525 48.9 99.6845 49.152 101.7 49.656C103.716 50.16 105.318 51.042 106.506 52.302C107.694 53.562 108.288 55.344 108.288 57.648C108.288 59.16 107.892 60.672 107.1 62.184C106.308 63.66 105.228 64.668 103.86 65.208V65.424C105.552 65.892 106.974 66.792 108.126 68.124C109.314 69.456 109.908 71.292 109.908 73.632C109.908 76.044 109.278 78.024 108.018 79.572C106.758 81.084 105.084 82.2 102.996 82.92C100.908 83.64 98.6045 84 96.0845 84H82.3685ZM91.6565 62.616H94.7885C96.3005 62.616 97.4165 62.292 98.1365 61.644C98.8565 60.996 99.2165 60.132 99.2165 59.052C99.2165 57.972 98.8565 57.198 98.1365 56.73C97.4165 56.262 96.3005 56.028 94.7885 56.028H91.6565V62.616ZM91.6565 76.872H95.4365C99.0365 76.872 100.836 75.576 100.836 72.984C100.836 71.688 100.386 70.77 99.4865 70.23C98.6225 69.69 97.2725 69.42 95.4365 69.42H91.6565V76.872ZM115.433 84V48.9H128.285C130.841 48.9 133.199 49.26 135.359 49.98C137.519 50.7 139.247 51.906 140.543 53.598C141.875 55.29 142.541 57.612 142.541 60.564C142.541 63.408 141.875 65.748 140.543 67.584C139.247 69.384 137.519 70.716 135.359 71.58C133.235 72.444 130.949 72.876 128.501 72.876H124.721V84H115.433ZM124.721 65.532H128.069C129.905 65.532 131.255 65.1 132.119 64.236C133.019 63.336 133.469 62.112 133.469 60.564C133.469 58.98 132.983 57.864 132.011 57.216C131.039 56.568 129.653 56.244 127.853 56.244H124.721V65.532Z" fill="#EB9D73"/>
<defs>
<filter id="filter0_d_3_121" x="155.125" y="47.9164" width="12" height="12" filterUnits="userSpaceOnUse" color-interpolation-filters="sRGB">
<feFlood flood-opacity="0" result="BackgroundImageFix"/>
<feColorMatrix in="SourceAlpha" type="matrix" values="0 0 0 0 0 0 0 0 0 0 0 0 0 0 0 0 0 0 127 0" result="hardAlpha"/>
<feOffset dy="4"/>
<feGaussianBlur stdDeviation="2"/>
<feComposite in2="hardAlpha" operator="out"/>
<feColorMatrix type="matrix" values="0 0 0 0 0 0 0 0 0 0 0 0 0 0 0 0 0 0 0.25 0"/>
<feBlend mode="normal" in2="BackgroundImageFix" result="effect1_dropShadow_3_121"/>
<feBlend mode="normal" in="SourceGraphic" in2="effect1_dropShadow_3_121" result="shape"/>
</filter>
</defs>
</svg>
